<svg xmlns="http://www.w3.org/2000/svg" width="72" height="72"><path fill="#BBB226" d="M53.299 40.539c-.104 0-.202.022-.293.067l-37.199 18.262c-.173.085-.301.242-.36.443-.063.218-.04.458.067.677l2.883 5.871c.155.316.458.521.772.521.103 0 .201-.022.293-.067l37.198-18.262c.374-.184.506-.687.293-1.12l-2.883-5.872c-.156-.316-.458-.52-.771-.52z"/><path fill="#BBB226" d="M56.725 58.227l-9.231-4.374-10.718 5.262 15.949 7.557c.64.303 1.427-.019 1.758-.718l2.801-5.911c.329-.7.08-1.514-.559-1.816z"/><path fill="#BBB226" d="M36.771 25.252c.17-.066 2.415-6.541 2.415-6.541s2.18-4.206 1.635-8.644c-.545-4.439-3.115-6.464-7.398-6.853 0 0 3.971 2.57 2.492 7.32-.659 1.915-6.191 7.923-9.001 10.885-2.648 2.174-4.315 5.336-4.315 8.855 0 6.559 5.788 11.875 12.927 11.875s12.926-5.316 12.926-11.875c0-4.167-2.336-7.833-5.872-9.952-.53-.318-.369 5.189-.591 7.188-.235 2.103-5.919 4.205-5.218-2.258zm-.429 12.304c-4.881 0-8.838-3.888-8.838-8.683 0-4.442 3.397-8.103 7.778-8.618-2.366 1.558-3.923 4.208-3.923 7.216 0 4.795 3.957 8.682 8.837 8.682.359 0 .714-.022 1.062-.063-1.406.925-3.097 1.466-4.916 1.466z"/><path fill="#BBB226" d="M15.275 48.926l9.227 4.372 10.718-5.262-15.943-7.555c-.639-.303-1.427.019-1.758.718l-2.801 5.911c-.332.7-.083 1.513.557 1.816z"/></svg>