<?xml version="1.0" encoding="utf-8"?>
<!-- Generator: Adobe Illustrator 15.1.0, SVG Export Plug-In . SVG Version: 6.00 Build 0)  -->
<!DOCTYPE svg PUBLIC "-//W3C//DTD SVG 1.1//EN" "http://www.w3.org/Graphics/SVG/1.1/DTD/svg11.dtd">
<svg version="1.1" id="Layer_1" xmlns="http://www.w3.org/2000/svg" xmlns:xlink="http://www.w3.org/1999/xlink" x="0px" y="0px"
	 width="72px" height="72px" viewBox="0 0 72 72" enable-background="new 0 0 72 72" xml:space="preserve">
<g>
	<g>
		<g>
			<path fill="#525252" d="M53.299,40.539c-0.104,0-0.202,0.022-0.293,0.067L15.807,58.868c-0.173,0.085-0.301,0.242-0.36,0.443
				c-0.063,0.218-0.04,0.458,0.067,0.677l2.883,5.871c0.155,0.316,0.458,0.521,0.772,0.521c0.103,0,0.201-0.022,0.293-0.067
				L56.66,48.051c0.374-0.184,0.506-0.687,0.293-1.12l-2.883-5.872C53.914,40.743,53.612,40.539,53.299,40.539z"/>
		</g>
	</g>
	<path fill="#525252" d="M56.725,58.227l-9.231-4.374l-10.718,5.262l15.949,7.557c0.64,0.303,1.427-0.019,1.758-0.718l2.801-5.911
		C57.613,59.343,57.364,58.529,56.725,58.227z"/>
	<path fill="#525252" d="M36.771,25.252c0.17-0.066,2.415-6.541,2.415-6.541s2.18-4.206,1.635-8.644
		c-0.545-4.439-3.115-6.464-7.398-6.853c0,0,3.971,2.57,2.492,7.32c-0.659,1.915-6.191,7.923-9.001,10.885
		c-2.648,2.174-4.315,5.336-4.315,8.855c0,6.559,5.788,11.875,12.927,11.875s12.926-5.316,12.926-11.875
		c0-4.167-2.336-7.833-5.872-9.952c-0.53-0.318-0.369,5.189-0.591,7.188C41.754,29.613,36.07,31.715,36.771,25.252z M36.342,37.556
		c-4.881,0-8.838-3.888-8.838-8.683c0-4.442,3.397-8.103,7.778-8.618c-2.366,1.558-3.923,4.208-3.923,7.216
		c0,4.795,3.957,8.682,8.837,8.682c0.359,0,0.714-0.022,1.062-0.063C39.852,37.015,38.161,37.556,36.342,37.556z"/>
	<path fill="#525252" d="M15.275,48.926l9.227,4.372l10.718-5.262l-15.943-7.555c-0.639-0.303-1.427,0.019-1.758,0.718l-2.801,5.911
		C14.386,47.81,14.635,48.623,15.275,48.926z"/>
</g>
</svg>
