<?xml version="1.0" encoding="utf-8"?>
<!-- Generator: Adobe Illustrator 15.1.0, SVG Export Plug-In . SVG Version: 6.00 Build 0)  -->
<!DOCTYPE svg PUBLIC "-//W3C//DTD SVG 1.1//EN" "http://www.w3.org/Graphics/SVG/1.1/DTD/svg11.dtd">
<svg version="1.1" id="Layer_1" xmlns="http://www.w3.org/2000/svg" xmlns:xlink="http://www.w3.org/1999/xlink" x="0px" y="0px"
	 width="72px" height="72px" viewBox="0 0 72 72" enable-background="new 0 0 72 72" xml:space="preserve">
<path fill="#337287" d="M65.467,54.873c0.73,1.066,0.27,1.942-1.023,1.942L4.789,56.853c-1.293,0.001-1.757-0.874-1.031-1.945
	l29.43-43.387c0.726-1.07,1.917-1.073,2.646-0.004L65.467,54.873z"/>
<path fill="#FFFFFF" d="M34.516,14.217c1.243,0,14.904,20.37,14.568,20.931c-0.393,0.653-10.197-3.082-10.581-3.005
	c-0.653,0.13-11.562,7.986-12.279,7.576c-0.914-0.523-3.787-8.099-3.787-8.752C22.437,29.792,33.017,14.217,34.516,14.217z"/>
</svg>
